<?xml version="1.0"?><svg width="455.94513" height="442.04596" xmlns="http://www.w3.org/2000/svg" xmlns:xlink="http://www.w3.org/1999/xlink">
 <title>Piggy Bank</title>
 <metadata id="metadata7">image/svg+xml</metadata>
 <defs>
  <clipPath id="clipPath3413" clipPathUnits="userSpaceOnUse">
   <path fill="#ddaee9" fill-rule="evenodd" stroke-width="1px" mask="none" id="path3415" d="m465.677551,248.248199c33.958984,3.666199 103.235352,-40.5 67.5,-128.647072c-35.735291,-88.147057 -146.405212,-69.019791 -162,-18.264709c-2.950195,9.601868 45.514832,19.719086 65.911804,58.764717c20.396973,39.045654 12.019714,86.358337 28.588196,88.147064z"/>
  </clipPath>
  <filter height="1.508366" y="-0.254183" width="1.89339" x="-0.446695" id="filter3653">
   <feGaussianBlur id="feGaussianBlur3655" stdDeviation="18.537296"/>
  </filter>
  <clipPath id="clipPath3671" clipPathUnits="userSpaceOnUse">
   <path fill="url(#radialGradient3675)" fill-rule="evenodd" stroke-width="1px" id="path3673" d="m525.677551,248.248199c33.958984,3.666199 103.235352,-40.5 67.5,-128.647072c-35.735291,-88.147057 -146.405212,-69.019791 -162,-18.264709c-2.950195,9.601868 45.514832,19.719086 65.911804,58.764717c20.396973,39.045654 12.019714,86.358337 28.588196,88.147064z"/>
  </clipPath>
  <filter height="1.196955" y="-0.098478" width="1.289348" x="-0.144674" id="filter3893">
   <feGaussianBlur id="feGaussianBlur3895" stdDeviation="5.988551"/>
  </filter>
  <clipPath id="clipPath3903" clipPathUnits="userSpaceOnUse">
   <path fill="url(#linearGradient3907)" fill-rule="evenodd" stroke-width="1px" id="path3905" d="m-8.381866,69.831215c19.295563,-6.743073 57.285202,-29.584763 42.67598,-41.833694c-21.907486,7.501251 -56.522827,-55.105698 -120.728088,-13.757378c-36.870659,23.744766 12.213181,90.265297 -0.140381,107.6726c17.15242,-28.608139 27.964462,-34.577789 78.19249,-52.081528z"/>
  </clipPath>
  <filter height="1.357834" y="-0.178917" width="1.352456" x="-0.176228" id="filter3985">
   <feGaussianBlur id="feGaussianBlur3987" stdDeviation="6.444215"/>
  </filter>
  <clipPath id="clipPath4038" clipPathUnits="userSpaceOnUse">
   <path fill="url(#radialGradient4042)" fill-rule="evenodd" stroke-width="1px" id="path4040" d="m43.11763,265.448639c-7.829926,9.332825 -25.563324,13.474152 -26.542404,33.394592c-0.993454,20.212799 17.934402,56.513916 45.548111,63.566895c27.525482,7.030426 30.47464,-0.878815 44.565063,-0.292938c13.763428,0.572266 14.745758,-48.920135 -9.830536,-72.062012c-24.413208,-22.988251 -42.271271,-26.657074 -53.740234,-24.606537z"/>
  </clipPath>
  <filter id="filter4333">
   <feGaussianBlur id="feGaussianBlur4335" stdDeviation="0.159074"/>
  </filter>
  <filter id="filter4337">
   <feGaussianBlur id="feGaussianBlur4339" stdDeviation="0.173454"/>
  </filter>
  <filter id="filter4365">
   <feGaussianBlur id="feGaussianBlur4367" stdDeviation="0.465083"/>
  </filter>
  <filter id="filter4384">
   <feGaussianBlur id="feGaussianBlur4386" stdDeviation="0.464313"/>
  </filter>
  <filter height="1.386455" y="-0.193227" width="1.171628" x="-0.085814" id="filter4775">
   <feGaussianBlur id="feGaussianBlur4777" stdDeviation="12.04629"/>
  </filter>
  <linearGradient id="linearGradient4391">
   <stop stop-color="#b02d30" id="stop4393" offset="0"/>
   <stop stop-color="#883739" id="stop4395" offset="1"/>
  </linearGradient>
  <linearGradient id="linearGradient4020">
   <stop stop-color="#bed092" offset="0" id="stop4022"/>
   <stop stop-color="#b3d57e" id="stop4024" offset="0.374919"/>
   <stop stop-color="#65893c" offset="1" id="stop4026"/>
  </linearGradient>
  <linearGradient id="linearGradient3231">
   <stop stop-color="#37441b" offset="0" id="stop3233"/>
   <stop stop-color="#c2d597" stop-opacity="0" offset="1" id="stop3235"/>
  </linearGradient>
  <linearGradient id="linearGradient3184">
   <stop stop-color="#c2d597" id="stop3186" offset="0"/>
   <stop stop-color="#b2ca7b" id="stop3188" offset="1"/>
  </linearGradient>
  <radialGradient r="86.047752" fy="321.55222" fx="461.4108" cy="321.55222" cx="461.4108" gradientTransform="matrix(0.8287575840950012,-3.5690646171569824,1.3630114793777466,0.31649890542030334,-703.73876953125,1835.8360595703125)" gradientUnits="userSpaceOnUse" id="radialGradient3409" xlink:href="#linearGradient3231"/>
  <radialGradient r="86.047752" fy="225.07777" fx="495.01108" cy="225.07777" cx="495.01108" gradientTransform="matrix(1.5452497005462646,-0.36516618728637695,0.38273099064826965,1.6195769309997559,-318.8752746582031,-47.02638244628906)" gradientUnits="userSpaceOnUse" id="radialGradient3675" xlink:href="#linearGradient3184"/>
  <linearGradient y2="164.767" x2="345.47244" y1="144.11993" x1="331.27277" gradientTransform="matrix(1,0,0,1,-362.70477294921875,-89.51651763916016)" gradientUnits="userSpaceOnUse" id="linearGradient3907" xlink:href="#linearGradient3184"/>
  <radialGradient r="60.955639" fy="363.02072" fx="266.66061" cy="363.02072" cx="266.66061" gradientTransform="matrix(1.8138703107833862,0.9417322278022766,-0.6900618076324463,1.0621798038482666,-169.02305603027344,-329.7697448730469)" gradientUnits="userSpaceOnUse" id="radialGradient4042" xlink:href="#linearGradient4020"/>
  <radialGradient gradientUnits="userSpaceOnUse" gradientTransform="matrix(1.1891586780548096,-0.28425440192222595,0.36680150032043457,1.534488558769226,-968.97314453125,-25.636634826660156)" r="51.853722" fy="248.27916" fx="714.7395" cy="248.27916" cx="714.7395" id="radialGradient4459" xlink:href="#linearGradient4391"/>
  <radialGradient gradientUnits="userSpaceOnUse" gradientTransform="matrix(1.532716155052185,0.1264072060585022,-0.08206085860729218,0.9950065016746521,-11.5423583984375,-108.1291732788086)" r="43.975529" fy="158.37764" fx="153.61691" cy="158.37764" cx="153.61691" id="radialGradient4461" xlink:href="#linearGradient4391"/>
  <radialGradient gradientUnits="userSpaceOnUse" gradientTransform="matrix(1,0,0,1.6096878051757812,-222.7047576904297,-327.6995849609375)" r="25.975019" fy="372.90387" fx="251.79059" cy="372.90387" cx="251.79059" id="radialGradient4681" xlink:href="#linearGradient4391"/>
 </defs>
 <g>
  <title>Layer 1</title>
  <path opacity="0.5" fill="#0e2a0b" fill-rule="nonzero" marker-start="none" marker-mid="none" marker-end="none" stroke-miterlimit="4" stroke-dashoffset="0" filter="url(#filter4775)" d="m437.059265,301.842987a186.499359,80.594704 0 1 1 -372.998703,67.516418a186.499359,80.594704 0 1 1 372.998703,-67.516418z" id="path4773"/>
  <path opacity="0.95" fill="url(#radialGradient4681)" fill-rule="evenodd" stroke-width="1px" id="path3176" d="m412.942627,314.656555c0,0 0.280762,34.814606 -19.653381,45.20282c-14.242188,7.421967 -44.360596,-8.14212 -44.360596,-8.14212l64.013977,-37.060699z"/>
  <path opacity="0.95" fill="url(#radialGradient4681)" fill-rule="evenodd" stroke-width="1px" id="path4389" d="m362.95697,8.821709c20.647095,6.948532 30.950684,39.564804 28.985291,53.602951l-90.926453,-36.926468c13.471802,-3.99881 41.171021,-23.666428 61.941162,-16.676483z"/>
  <path fill="#ffaaaa" fill-rule="evenodd" stroke-width="1px" id="path2404" d="m260.513977,13.327232c-31.198959,0.014572 -62.616043,5.802788 -91.718735,16.53125c-82.562225,30.435883 -127.2854,98.372536 -138.1875,142.156258c-40.971817,164.54599 116.495087,220.409241 128.25,230.6875c11.556,10.10437 14.895111,40.451477 51.21875,39.3125c36.339844,-1.139526 42.041168,-28.565155 57.968735,-35.75c15.264954,-6.885956 42.899353,-2.471039 123.09375,-64.3125c79.808838,-61.544128 82.042847,-194.892822 27.8125,-259.687508c-20.418518,-24.396164 -43.133972,-40.609604 -70.84375,-51.840073c-3.161804,-0.705338 -7.638245,-0.958046 -9.979797,-1.051468c-0.861023,-1.427017 -1.874207,-2.703247 -3.457703,-4.202209c-23.658203,-8.052528 -48.830994,-11.855583 -74.15625,-11.84375z"/>
  <path opacity="0.75" fill="#f8fcf0" fill-rule="evenodd" stroke-width="1px" filter="url(#filter4365)" id="path4359" d="m54.689072,163.184906c1.59024,-4.82608 8.043152,-18.509583 14.880432,-12.353577c3.109833,3.805969 -6.878693,20.91684 -11.090118,21.899536c-4.211456,0.982666 -4.492218,-8.422913 -3.790314,-9.545959z"/>
  <path opacity="0.95" fill="url(#radialGradient4681)" fill-rule="evenodd" stroke-width="1px" id="path3178" d="m265.677612,248.248199c33.958923,3.666199 103.235291,-40.5 67.499939,-128.647072c-35.735291,-88.147057 -146.405167,-69.019791 -161.999954,-18.264709c-2.950226,9.601868 45.514771,19.719086 65.911743,58.764717c20.396988,39.045654 12.019745,86.358337 28.588272,88.147064z"/>
  <path opacity="0.95" fill="url(#radialGradient4681)" fill-rule="evenodd" stroke-width="1px" id="path3180" d="m131.618118,69.831215c19.295563,-6.743073 57.285217,-29.584763 42.675995,-41.833694c-21.907471,7.501251 -56.522827,-55.105698 -120.728088,-13.757378c-36.870667,23.744766 12.213196,90.265297 -0.140381,107.6726c17.152405,-28.608139 27.964447,-34.577789 78.192474,-52.081528z"/>
  <path fill="url(#radialGradient3409)" fill-rule="evenodd" stroke-width="1px" filter="url(#filter3653)" clip-path="url(#clipPath3413)" mask="none" id="path3224" d="m354.184937,113.327232c0.290161,2.716537 -60.933777,-45.281387 -55.944885,-39.397064c63.767639,75.212349 9.690491,161.388527 -54.692993,145.897072c2.415344,16.032562 8.695923,35.288971 14.976135,40.318024c28.251526,22.62326 124.841919,-63.494751 95.661743,-146.818031z"/>
  <path opacity="0.5" fill="#889869" fill-rule="evenodd" stroke-width="1px" filter="url(#filter3893)" clip-path="url(#clipPath3671)" id="path3657" d="m165.871216,108.014977c0,0 53.174072,-24.13385 87.598022,5.61525c45.483643,39.306816 3.930725,142.066093 3.930725,142.066093l-91.528748,-147.681343z"/>
  <path opacity="0.5" fill="#839464" fill-rule="evenodd" stroke-width="1px" filter="url(#filter3985)" clip-path="url(#clipPath3903)" id="path3897" d="m131.056595,74.323418c-27.514755,-7.299835 -62.329376,-54.468025 -82.544296,-35.937668c-14.924507,13.680801 16.284241,76.367538 7.861359,83.667374c-8.422897,7.299843 88.215622,-43.996552 74.682938,-47.729706z"/>
  <path fill="#ffaaaa" fill-rule="evenodd" stroke-width="1px" id="path4010" d="m32.207001,214.101135c-9.487625,12.650177 -30.975403,18.26355 -32.161758,45.264709c-1.203766,27.397461 21.731323,76.601807 55.191162,86.161774c33.352966,9.529388 36.926483,-1.191193 54.000031,-0.397064c16.677338,0.775696 17.867615,-66.308838 -11.911774,-97.676483c-29.581757,-31.159454 -51.220612,-36.132355 -65.117661,-33.352936z"/>
  <path fill="#eff8dc" fill-rule="evenodd" stroke-width="1px" filter="url(#filter4384)" id="path4370" d="m116.035782,181.855652c6.597931,0.982666 11.581482,6.878693 5.404694,19.37265c0,0 -10.318054,0.842285 -10.318054,0.842285c0,0 -4.632568,-6.176788 -4.211426,-11.651672c0.421143,-5.474884 7.019073,-8.703644 9.124786,-8.563263z"/>
  <g id="g4354">
   <path opacity="0.95" fill="#000000" fill-rule="evenodd" stroke-width="1px" filter="url(#filter4337)" d="m151.857742,121.202232c-0.35498,0.071655 -0.736786,0.596832 -1,1.84375c-1.025116,4.856216 -7.477936,16.594887 -12.625,24.625008c-4.866821,7.592926 -15.001343,23.739807 -17.90625,26.8125c-0.006378,0.006775 -0.024933,-0.006622 -0.03125,0c-0.436829,-0.091797 -0.856537,-0.167542 -1.28125,-0.21875c0.877106,-4.274689 14.552277,-28.176361 14.71875,-33.53125c0.043457,-1.397858 -0.316101,-2.029388 -0.71875,-2.03125c-0.402649,-0.001862 -0.851288,0.625427 -0.96875,1.75c-0.781128,7.47876 -14.488037,30.718842 -16.5,33.875c-9.645691,1.646912 -14.583038,15.181946 -13.40625,22.125c0,0 5.084778,-21.907288 18.09375,-15.4375c12.840332,6.385925 -0.96875,28.21875 -0.96875,28.21875c8.492279,-2.953827 14.683014,-23.722351 6.625,-31.8125c0.746918,-2.993439 13.225555,-15.966461 14.96875,-17.84375c1.824951,-1.965363 -1.187988,-2.96582 -1.46875,-1.28125c-0.248474,1.490814 -12.638855,16.285492 -15.375,17.59375c-0.165131,-0.10025 -0.358032,-0.189026 -0.53125,-0.28125c0.260162,-2.610748 11.248138,-19.799103 15.90625,-27.28125c4.685669,-7.526428 11.689941,-20.386131 13.15625,-24.875008c0.403381,-1.234833 -0.095886,-2.369446 -0.6875,-2.25z" id="path4248"/>
   <path opacity="0.95" fill="#000000" fill-rule="evenodd" stroke-width="1px" d="m117.720352,189.295868c5.194122,2.667267 6.317169,9.265167 2.246124,14.038147c-4.012543,4.704346 -8.844055,7.019073 -12.072815,5.194122c-3.335724,-1.885406 -5.334503,-9.124786 -2.807617,-14.45929c2.472687,-5.220123 7.550964,-7.383362 12.634308,-4.77298z" id="path4250"/>
  </g>
  <g display="inline" id="g4347">
   <path opacity="0.95" fill="#000000" fill-rule="evenodd" stroke-width="1px" filter="url(#filter4333)" d="m103.701492,105.920982c-0.208008,-0.016602 -0.563263,0.087555 -1.03125,0.375c-12.946838,7.952057 -28.985291,29.198524 -32.0625,34.062508c-1.543915,2.440369 -2.951355,3.259216 -3.59375,3.53125c-0.253174,-0.093475 -0.514313,-0.173035 -0.78125,-0.21875c0.266083,-0.813599 4.173523,-12.389374 15.8125,-24.156258c2.376221,-2.402344 0.119476,-2.286499 -1.09375,-1c-13.147552,13.941719 -14.496307,21.62867 -17.375,25.500008c-6.860504,5.599304 -11.979401,15.963318 -15.78125,23.71875c2.580902,-1.985291 9.379395,-12.612244 12.90625,-17.46875c3.421295,-4.711121 11.059753,-3.369598 7.84375,7.9375c-2.000153,7.032288 -9.931976,13.520233 -11.71875,18.78125c0,0 10.829041,-10.134186 13.90625,-18.96875c0.953613,-2.737823 1.055298,-5.508362 0.59375,-7.875c2.136597,-5.09964 10.337952,-15.808685 14.1875,-18.34375c1.592529,-1.048737 2.14978,-3.183624 -0.1875,-1.78125c-5.320526,3.192291 -12.693726,15.0867 -14.8125,17.53125c-0.201874,-0.390991 -0.426483,-0.900055 -0.59375,-1.25c2.382355,-8.735321 27.142059,-36.172935 33.0625,-38.812508c0.886566,-0.395264 1.342804,-1.512695 0.71875,-1.5625z" id="path4319"/>
   <path opacity="0.95" fill="#000000" fill-rule="evenodd" stroke-width="1px" d="m60.606186,161.877991c2.845917,2.974274 1.822815,6.23114 -1.265686,10.461945c-2.931732,4.016022 -6.202454,7.792358 -8.426727,6.002411c-2.224243,-1.789948 -2.868256,-5.04245 -0.679993,-11.46759c1.887512,-5.542084 7.473602,-8.026306 10.372406,-4.996765z" id="path4345"/>
  </g>
  <path opacity="0.9" fill="url(#radialGradient4459)" fill-rule="evenodd" stroke-width="1px" clip-path="url(#clipPath3671)" id="path4399" d="m165.871216,108.014977c0,0 53.174072,-24.13385 87.598022,5.61525c45.483643,39.306816 3.930725,142.066093 3.930725,142.066093l-91.528748,-147.681343z"/>
  <path opacity="0.9" fill="url(#radialGradient4461)" fill-rule="evenodd" stroke-width="1px" clip-path="url(#clipPath3903)" id="path4401" d="m131.056595,74.323418c-27.514755,-7.299835 -62.329376,-54.468025 -82.544296,-35.937668c-14.924507,13.680801 16.284241,76.367538 7.861359,83.667374c-8.422897,7.299843 88.215622,-43.996552 74.682938,-47.729706z"/>
  <path opacity="0.95" fill="url(#radialGradient4681)" fill-rule="evenodd" stroke-width="1px" id="path4668" d="m9.782379,260.568054c-3.583389,3.333038 -1.612137,29.371307 1.762863,39.694855c3.375,10.323517 10.395798,19.163849 12.711395,17.479767c2.183807,-1.588226 2.763458,-15.036896 0.413605,-25.415436c-2.382355,-10.522064 -3.064331,-28.608765 -6.345596,-29.792267c-3.213181,-1.158966 -5.056259,-5.209381 -8.542267,-1.966919zm26.209549,20.823517c-3.68634,2.508759 -4.556946,20.412018 -3.384186,30.966919c1.509827,11.704315 10.383301,27.999023 18.455872,29.990814c8.072601,1.991791 9.924652,-0.590088 8.137878,-12.303314c-1.786774,-11.713226 -6.545959,-23.426483 -7.340057,-30.970581c-0.794128,-7.544128 -0.225952,-10.742859 -5.169128,-14.286774c-4.943176,-3.543884 -7.014038,-5.905792 -10.700378,-3.397064z"/>
  <path opacity="0.95" fill="#3f3f3f" fill-rule="evenodd" stroke-width="1px" id="path4685" d="m297.138977,19.014732c-45.016281,0.137543 -89.756332,17.062393 -111.406235,30.4375c1.005707,3.577545 17.195282,8.312012 21.6875,8.03125c45.812378,-14.246536 87.643723,-31.892632 130.812485,-28.0625c-0.93866,-2.320648 -3.802612,-4.70816 -7.53125,-7c-10.961365,-2.395142 -22.27533,-3.440742 -33.5625,-3.40625z"/>
  <path opacity="0.95" fill="#000000" fill-rule="evenodd" stroke-width="1px" id="path4759" d="m306.670227,28.139732c-37.493408,0.310699 -72.551712,11.084198 -106.781235,28.125c3.15567,0.813721 6.01181,1.313705 7.53125,1.21875c41.327362,-12.851807 79.403915,-28.470642 118.156235,-28.59375c-6.372253,-0.54464 -12.676392,-0.801628 -18.90625,-0.75z"/>
 </g>
</svg>